<?xml version="1.0" encoding="UTF-8"?>
<svg width="41px" height="64px" viewBox="0 0 41 64" version="1.1" xmlns="http://www.w3.org/2000/svg" xmlns:xlink="http://www.w3.org/1999/xlink">
    <!-- Generator: Sketch 52.1 (67048) - http://www.bohemiancoding.com/sketch -->
    <title>1</title>
    <desc>Created with Sketch.</desc>
    <g id="Page-1" stroke="none" stroke-width="1" fill="none" fill-rule="evenodd">
        <g id="1">
            <g id="Group">
                <rect id="Rectangle" x="0" y="0" width="41" height="64"></rect>
                <rect id="Rectangle" stroke="#A8A8A8" stroke-width="2" x="1" y="1" width="39" height="62"></rect>
            </g>
            <g id="Group" transform="translate(6.000000, 6.000000)">
                <rect id="Rectangle" x="-1.77635684e-15" y="0" width="13" height="52"></rect>
                <rect id="Rectangle" stroke="#A8A8A8" stroke-width="2" x="1" y="1" width="12" height="50"></rect>
            </g>
            <g id="Group" transform="translate(22.000000, 7.000000)">
                <rect id="Rectangle" x="0" y="0" width="12" height="24"></rect>
                <rect id="Rectangle" stroke="#A8A8A8" stroke-width="2" x="1" y="0" width="11" height="23"></rect>
            </g>
            <g id="Group" transform="translate(22.000000, 34.000000)">
                <rect id="Rectangle" x="0" y="0" width="12" height="24"></rect>
                <rect id="Rectangle" stroke="#A8A8A8" stroke-width="2" x="1" y="0" width="11" height="23"></rect>
            </g>
            <path d="M9,18.509 L16.5,11.5" id="Path" stroke="#A8A8A8"></path>
            <path d="M24.5,18.509 L32,11.5" id="Path" stroke="#A8A8A8"></path>
            <path d="M9,23.509 L16.5,16.5" id="Path" stroke="#A8A8A8"></path>
            <path d="M24.5,23.509 L32,16.5" id="Path" stroke="#A8A8A8"></path>
            <path d="M25,45.509 L32.5,38.5" id="Path" stroke="#A8A8A8"></path>
            <path d="M25,50.509 L32.5,43.5" id="Path" stroke="#A8A8A8"></path>
        </g>
    </g>
</svg>